<svg id="Layer_1" data-name="Layer 1" xmlns="http://www.w3.org/2000/svg" viewBox="0 0 260.13 272.17"><title>code</title><path d="M299,439.91c-37.37,0-74.74-.19-112.1.12-10.85.09-18-8.13-18-17.91.23-59.47.11-118.95.12-178.43,0-10.63,6.68-17.3,17.25-17.3H411.57c10.81,0,17.43,6.53,17.43,17.38q0,89.76,0,179.53c0,9.8-6.91,16.59-16.83,16.6Q355.58,439.93,299,439.91Zm107.78-41.73V249H191.26v149.2Zm-99.43,20.1a8.33,8.33,0,1,0-8.35,8.3A8.33,8.33,0,0,0,307.33,418.28Z" transform="translate(-168.89 -226.38)"/><path d="M300.12,498.55H239c-4.63,0-5.64-1.15-5.83-5.83-.22-5.67.57-10.94,4.86-15.12a15.28,15.28,0,0,1,12.2-4.54c2.62.19,3.61-.84,4.39-3.18,2.23-6.66,4.78-13.2,7.09-19.83a2.6,2.6,0,0,1,2.93-2q35.36.08,70.71,0a2.6,2.6,0,0,1,2.93,2.07c2.24,6.46,4.74,12.83,6.89,19.32.9,2.73,2.21,3.74,5.19,3.7,7.76-.11,14,4.4,15.68,11.54a39.82,39.82,0,0,1,.65,10.31c-.07,2.5-1.85,3.59-4.91,3.59q-19.45,0-38.91,0Z" transform="translate(-168.89 -226.38)"/><path d="M285.12,368.59c-6.54,0-10.05-5.56-7.55-12.07q11.88-30.87,23.82-61.72c1.41-3.66,2.78-7.33,4.26-11,1.88-4.62,5.92-6.45,10.4-4.79s6.6,5.85,4.77,10.61q-14.16,36.87-28.46,73.7C291.1,366.63,288.79,368.59,285.12,368.59Z" transform="translate(-168.89 -226.38)"/><path d="M244.07,323.54l19.14,10.94c1,.59,2.09,1.13,3.07,1.78a7.87,7.87,0,0,1,2.65,11c-2.28,3.94-6.5,5.37-10.57,3.12-10.75-6-21.5-12-32.06-18.31a9.89,9.89,0,0,1,.11-17.09c10.41-6.2,21-12.17,31.53-18.13,4.32-2.43,8.7-1.1,11,3s1.17,8.67-3.23,11.23C258.74,315.19,251.68,319.18,244.07,323.54Z" transform="translate(-168.89 -226.38)"/><path d="M353.77,323.49,342.33,317c-3.49-2-7-3.88-10.45-6a8.07,8.07,0,0,1,8.06-14c10.6,5.91,21.2,11.83,31.65,18a9.88,9.88,0,0,1,.14,17.1c-10.58,6.31-21.36,12.28-32.16,18.22-4,2.2-8.24.64-10.51-3.37s-1.34-8.38,2.6-10.73c6.35-3.78,12.84-7.34,19.26-11C351.76,324.74,352.57,324.21,353.77,323.49Z" transform="translate(-168.89 -226.38)"/></svg>